<svg width="20" height="22" viewBox="0 0 20 22" fill="none" xmlns="http://www.w3.org/2000/svg">
<path d="M9.90297 9.45769L9.97127 9.40994L9.90297 9.45769L10.6771 10.5649L16.8636 19.4139C16.9409 19.5244 16.8618 19.6761 16.727 19.6761H14.6853C14.6309 19.6761 14.5799 19.6495 14.5487 19.6049L9.35058 12.1696L9.28518 12.2153L9.35058 12.1695L8.57644 11.0623L2.69184 2.64518C2.61461 2.53471 2.69365 2.38301 2.82844 2.38301H4.8702C4.92462 2.38301 4.97561 2.40958 5.0068 2.45419L9.90297 9.45769ZM11.8357 9.37704L18.6403 1.46739C18.8262 1.25129 18.6727 0.916666 18.3876 0.916666H17.3208C17.2237 0.916666 17.1314 0.959003 17.0681 1.03261L11.0286 8.05275C10.9573 8.13564 10.8268 8.12857 10.7649 8.03844L5.9707 1.06123C5.90852 0.970735 5.80576 0.916666 5.69597 0.916666H0.475117C0.20676 0.916666 0.0484101 1.2176 0.200387 1.43878L7.46273 12.0078C7.50557 12.0702 7.50105 12.1536 7.45171 12.2109L0.292194 20.5326C0.106271 20.7487 0.259806 21.0833 0.544881 21.0833H1.61182C1.70891 21.0833 1.80118 21.041 1.86451 20.9674L8.25839 13.5352C8.3297 13.4523 8.46017 13.4594 8.5221 13.5495L13.5996 20.9388C13.6618 21.0293 13.7645 21.0833 13.8743 21.0833H19.0952C19.3636 21.0833 19.5219 20.7824 19.3699 20.5612L11.8247 9.58012C11.7819 9.51777 11.7864 9.43438 11.8357 9.37704Z" fill="#48525F" stroke="#48525F" stroke-width="0.166668"/>
</svg>
